<?xml version="1.0" encoding="utf-8"?>
<!-- Generator: Adobe Illustrator 16.0.0, SVG Export Plug-In . SVG Version: 6.00 Build 0)  -->
<!DOCTYPE svg PUBLIC "-//W3C//DTD SVG 1.1//EN" "http://www.w3.org/Graphics/SVG/1.1/DTD/svg11.dtd">
<svg version="1.1"
	 id="Слой_1" xmlns:inkscape="http://www.inkscape.org/namespaces/inkscape" xmlns:sodipodi="http://sodipodi.sourceforge.net/DTD/sodipodi-0.dtd" xmlns:svg="http://www.w3.org/2000/svg" xmlns:rdf="http://www.w3.org/1999/02/22-rdf-syntax-ns#" xmlns:cc="http://creativecommons.org/ns#" xmlns:dc="http://purl.org/dc/elements/1.1/" sodipodi:docname="mission_special.svg" inkscape:version="0.92.4 (5da689c313, 2019-01-14)"
	 xmlns="http://www.w3.org/2000/svg" xmlns:xlink="http://www.w3.org/1999/xlink" x="0px" y="0px" width="612px" height="792px"
	 viewBox="0 0 612 792" enable-background="new 0 0 612 792" xml:space="preserve">
<sodipodi:namedview  id="namedview41" borderopacity="1" pagecolor="#ffffff" bordercolor="#666666" objecttolerance="10" gridtolerance="10" guidetolerance="10" showgrid="false" showguides="false" inkscape:zoom="2.4576907" inkscape:cx="-43.161845" inkscape:cy="93.254372" inkscape:current-layer="g38" inkscape:window-maximized="1" inkscape:window-y="-8" inkscape:window-x="-8" inkscape:window-height="988" inkscape:window-width="1680" inkscape:pageshadow="2" inkscape:pageopacity="0">
	</sodipodi:namedview>
<g id="g38">
	<g id="g8">
		
			<ellipse id="ellipse4" transform="matrix(-0.9999 -0.0136 0.0136 -0.9999 623.5197 1374.7458)" fill="#3860AA" stroke="#FFFFFF" stroke-width="3" stroke-miterlimit="10" cx="316.427" cy="685.256" rx="84.565" ry="41.991"/>
		<path id="path6" fill="#3860AA" stroke="#FFFFFF" stroke-width="3" stroke-miterlimit="10" d="M524.12,688.188
			c-0.583,57.154-94.479,102.646-208.789,100.896c-114.893-1.75-207.04-48.989-206.456-106.728
			c0.583-57.738,94.479-102.646,208.789-100.896C431.973,583.211,524.703,631.034,524.12,688.188z M317.664,613.537
			c-88.648-1.166-160.383,30.327-160.966,69.985c-0.584,39.659,70.568,72.901,159.216,74.068
			c88.648,1.166,160.383-30.327,160.966-69.985C476.88,647.947,405.729,614.704,317.664,613.537z"/>
	</g>
	<polygon id="polygon10" fill="#3A60AA" stroke="#FFFF37" stroke-width="3" stroke-miterlimit="10" points="505.457,462.486 
		349.157,365.673 325.829,444.406 291.42,362.174 194.607,461.319 202.189,358.674 68.633,374.421 199.856,270.026 124.621,236.784 
		182.943,219.871 53.47,81.649 234.265,144.636 196.357,11.664 292.586,111.393 318.83,23.329 359.656,111.393 553.281,11.664 
		417.393,145.219 550.365,82.816 451.219,203.541 537.534,237.367 450.636,271.193 505.457,341.178 432.557,313.184 	"/>
	<g id="g32">
		<polygon id="polygon12" fill="#FFFFFF" stroke="#FFFFFF" stroke-width="3" stroke-miterlimit="10" points="388.816,174.963 
			228.433,233.284 222.018,216.371 382.401,158.633 		"/>
		<polygon id="polygon14" fill="#FFFFFF" stroke="#FFFFFF" stroke-width="3" stroke-miterlimit="10" points="227.85,237.367 
			195.773,249.031 187.025,226.286 218.519,214.622 		"/>
		<polygon id="polygon16" fill="#FFFFFF" stroke="#FFFFFF" stroke-width="3" stroke-miterlimit="10" points="312.998,214.038 
			238.931,240.866 236.015,232.701 309.499,205.874 		"/>
		<polygon id="polygon18" fill="#FFFFFF" stroke="#FFFFFF" stroke-width="3" stroke-miterlimit="10" points="315.914,213.455 
			392.898,185.461 391.149,181.378 314.164,209.373 		"/>
		<polygon id="polygon20" fill="#FFFFFF" stroke="#FFFFFF" stroke-width="3" stroke-miterlimit="10" points="427.891,179.046 
			397.564,190.126 391.732,174.38 421.476,163.299 		"/>
		<polygon id="polygon22" fill="#FFFFFF" stroke="#FFFFFF" stroke-width="3" stroke-miterlimit="10" points="454.135,168.548 
			429.057,175.546 424.975,166.215 448.303,153.968 		"/>
		
			<ellipse id="ellipse24" transform="matrix(-0.1977 -0.9803 0.9803 -0.1977 14.0836 599.3877)" fill="#FFFFFF" stroke="#FFFFFF" stroke-width="3" stroke-miterlimit="10" cx="252.329" cy="293.93" rx="46.658" ry="16.331"/>
		<polygon id="polygon26" fill="#FFFFFF" stroke="#FFFFFF" stroke-width="3" stroke-miterlimit="10" points="361.988,254.28 
			279.172,284.607 260.51,235.617 343.325,205.874 		"/>
		<polygon id="polygon28" fill="#FFFFFF" stroke="#FFFFFF" stroke-width="3" stroke-miterlimit="10" points="236.598,240.283 
			263.426,230.951 277.423,267.694 251.178,277.608 		"/>
		<polygon id="polygon30" fill="#FFFFFF" stroke="#FFFFFF" stroke-width="3" stroke-miterlimit="10" points="240.68,260.695 
			234.265,272.359 226.684,261.278 		"/>
	</g>
	<polygon id="polygon34" fill="#3A60AA" stroke="#FFFF37" stroke-width="3" stroke-miterlimit="10" points="406.895,495.729 
		314.164,686.438 220.851,495.729 258.177,495.729 314.164,617.037 373.069,495.729 	"/>
	<polygon id="polygon36" fill="#3A60AA" stroke="#FFFF37" stroke-width="3" stroke-miterlimit="10" points="375.985,451.988 
		315.331,556.966 254.677,451.988 279.172,451.988 315.331,518.475 353.823,451.988 	"/>
</g>
</svg>
