<?xml version="1.0" encoding="utf-8"?>
<!-- Generator: Adobe Illustrator 16.0.0, SVG Export Plug-In . SVG Version: 6.00 Build 0)  -->
<!DOCTYPE svg PUBLIC "-//W3C//DTD SVG 1.1//EN" "http://www.w3.org/Graphics/SVG/1.1/DTD/svg11.dtd">
<svg version="1.1" id="svg2" xmlns:svg="http://www.w3.org/2000/svg"
	 xmlns="http://www.w3.org/2000/svg" xmlns:xlink="http://www.w3.org/1999/xlink" x="0px" y="0px" width="600px" height="600px"
	 viewBox="0 0 600 600" enable-background="new 0 0 600 600" xml:space="preserve">
<path id="X" fill="#F60000" d="M35.726,471.828c0-7.901,36.403-47.59,80.896-88.189c44.494-40.601,87.373-80.025,95.286-87.606
	c7.915-7.58-0.306-51.592-18.265-97.802C156.434,102.5,153.042,70.668,178.726,58.247c35.108-16.979,83.288,8.104,123.731,64.413
	l40.972,57.045l76.938-59.091c50.594-38.854,86.706-56.157,105.456-50.527c37.091,11.138,58.496,54.722,30.466,62.032
	c-31.815,8.3-163.494,165.108-163.245,194.398c0.116,13.868,18.827,50.684,41.576,81.812c16.046,21.953,37.617,39.278,29.054,51.187
	l-45.77,63.656c-8.875,12.347-41.667-20.571-80.509-52.521l-67.755-55.737l-75.116,69.709
	c-41.313,38.34-79.881,69.513-85.709,69.269C102.985,553.647,35.726,479.732,35.726,471.828z"/>
</svg>
