<?xml version="1.0" encoding="utf-8"?>
<!-- Generator: Adobe Illustrator 16.0.0, SVG Export Plug-In . SVG Version: 6.00 Build 0)  -->
<!DOCTYPE svg PUBLIC "-//W3C//DTD SVG 1.1//EN" "http://www.w3.org/Graphics/SVG/1.1/DTD/svg11.dtd">
<svg version="1.1" id="svg2" xmlns:svg="http://www.w3.org/2000/svg"
	 xmlns="http://www.w3.org/2000/svg" xmlns:xlink="http://www.w3.org/1999/xlink" x="0px" y="0px" width="450px" height="450px"
	 viewBox="0 0 450 450" enable-background="new 0 0 450 450" xml:space="preserve">
<g id="g2553" transform="translate(61.622316,0)">
	<path id="path2412" fill="#FFCC00" d="M226.139,294.488c7.051-9.414,22.215-12.759,31.305-6.906
		c8.088,5.207,9.936,16.641,4.233,26.188c-2.966,4.965-10.513,10.727-15.929,12.158C225.535,331.274,213.29,311.642,226.139,294.488
		z"/>
	<path id="path2392" fill="#FFCC00" d="M246,252.271l-4.984-1.065l2.608-65.79c1.434-36.184,3.728-75.405,4.216-75.676
		c24.022-9.905,60.571-10.096,59.907,2.238l-2.959,15.124c-1.627,8.318-7.277,35.208-11.559,49.174
		c-7.539,24.588-17.745,59.639-20.756,71.279c-1.168,4.514-2.186,5.86-4.938,6.539C264.009,254.961,255.023,254.2,246,252.271z"/>
</g>
</svg>
